<svg xmlns="http://www.w3.org/2000/svg" viewBox="0 0 24 24" fill="none">
  <path d="M12 0C5.373 0 0 5.373 0 12s5.373 12 12 12 12-5.373 12-12S18.627 0 12 0zm0 4.224a2.224 2.224 0 11-2.224 2.224A2.224 2.224 0 0112 4.224zm7.777 9.764c-1.21 3.156-4.328 5.172-7.777 5.172s-6.567-2.016-7.777-5.172c-.085-.222-.085-.463 0-.685 1.21-3.156 4.328-5.172 7.777-5.172s6.567 2.016 7.777 5.172c.085.222.085.463 0 .685z" fill="#3880FF"/>
  <path d="M12 9.888a2.112 2.112 0 100 4.224 2.112 2.112 0 000-4.224z" fill="#3880FF"/>
</svg>
