<svg xmlns="http://www.w3.org/2000/svg" viewBox="0 0 24 24" fill="none">
  <path d="M16.405 19.534c0 0 .93.542-.645.962-2.508.802-10.328.984-12.524.03-.795-.345.646-.822 1.082-.923.453-.106.715-.086.715-.086-.823-.58-5.324 1.138-2.287 1.63 8.304 1.432 15.121-.644 13.659-1.613M9.912 13.093s-3.767.895-1.333 1.22c1.025.137 3.073.106 4.978-.053 1.557-.132 3.121-.413 3.121-.413s-.55.236-.947.508c-3.82 1.005-11.204.538-9.085-.491 1.796-.87 3.266-.771 3.266-.771M15.862 16.87c1.557-.812 1.176-1.592.47-1.486-.173.026-.25.048-.25.048s.064-.1.187-.144c1.398-.492 2.473 1.033-.451 1.58 0 0 .034-.027.044-.052" fill="#ED1D25"/>
  <path d="M18.5 5h-13A1.5 1.5 0 004 6.5v11A1.5 1.5 0 005.5 19h13a1.5 1.5 0 001.5-1.5v-11A1.5 1.5 0 0018.5 5zM9 8.445h1.5v4.714c0 1.047-.452 1.41-1.5 1.41V15.5c2.25 0 3-1.024 3-2.341V8.445H9v.931zm6.5 4.714c0-1.047.452-1.41 1.5-1.41V10.75c-2.25 0-3 1.024-3 2.341v4.714H15.5v-4.714z" fill="#ED1D25"/>
</svg>
