<svg xmlns="http://www.w3.org/2000/svg" viewBox="0 0 24 24" fill="none">
  <path d="M11.998 24c-.321 0-.641-.084-.923-.247l-2.935-1.738c-.439-.245-.225-.332-.08-.382.584-.204.703-.25 1.327-.604.066-.037.152-.024.219.015l2.255 1.339c.082.045.198.045.273 0l8.795-5.076c.082-.048.134-.143.134-.242V6.921c0-.102-.052-.196-.138-.247l-8.791-5.072c-.081-.048-.189-.048-.271 0L3.076 6.678c-.087.05-.139.145-.139.247v10.147c0 .099.052.194.137.24l2.408 1.391c1.308.654 2.107-.116 2.107-.891V7.787c0-.142.114-.253.255-.253h1.115c.139 0 .255.112.255.253v10.021c0 1.745-.95 2.745-2.604 2.745-.508 0-.909 0-2.026-.55l-2.304-1.325A1.849 1.849 0 011 17.067V6.921c0-.674.36-1.304.946-1.641L10.74.201a1.929 1.929 0 011.734 0l8.794 5.079c.585.337.945.967.945 1.641v10.146c0 .674-.36 1.304-.945 1.641l-8.794 5.078c-.282.163-.602.247-.923.247" fill="#339933"/>
  <path d="M14.858 16.937c-3.847 0-4.654-1.766-4.654-3.248 0-.142.114-.253.255-.253h1.137c.127 0 .232.091.252.215.172 1.158.683 1.742 3.013 1.742 1.853 0 2.641-.419 2.641-1.402 0-.566-.225-.986-3.104-1.269-2.408-.239-3.895-.77-3.895-2.694 0-1.775 1.497-2.831 4.004-2.831 2.815 0 4.211.976 4.387 3.074a.256.256 0 01-.255.278h-1.143c-.118 0-.221-.084-.247-.198-.275-1.218-.94-1.609-2.742-1.609-2.019 0-2.255.703-2.255 1.231 0 .64.277.826 3.009 1.187 2.705.359 3.986.865 3.986 2.766 0 1.915-1.599 3.011-4.389 3.011" fill="#339933"/>
</svg>
