<svg xmlns="http://www.w3.org/2000/svg" viewBox="0 0 24 24" fill="none">
  <path d="M12 0C5.373 0 0 5.373 0 12s5.373 12 12 12 12-5.373 12-12S18.627 0 12 0zm5.797 15.907c-.804 0-1.392-.23-1.765-.69-.373-.46-.497-1.193-.373-2.195.124-1.003.447-1.735.97-2.196.522-.461 1.241-.692 2.159-.692.42 0 .863.05 1.328.149l-.298 1.493a4.142 4.142 0 00-.895-.1c-.447 0-.756.124-.93.373-.174.248-.298.696-.373 1.343-.074.646-.05 1.095.075 1.343.124.249.397.373.82.373.323 0 .646-.05.97-.15l-.299 1.493a5.242 5.242 0 01-1.389.15zm-6.766 0c-.804 0-1.392-.23-1.765-.69-.373-.46-.497-1.193-.373-2.195.124-1.003.447-1.735.97-2.196.522-.461 1.241-.692 2.159-.692.42 0 .863.05 1.328.149l-.298 1.493a4.142 4.142 0 00-.895-.1c-.447 0-.756.124-.93.373-.174.248-.298.696-.373 1.343-.074.646-.05 1.095.075 1.343.124.249.397.373.82.373.323 0 .646-.05.97-.15l-.299 1.493a5.242 5.242 0 01-1.389.15zm-1.865-6.915l.895-4.478h1.791l-.298 1.493h1.592c.92 0 1.54.174 1.865.522.323.348.398.97.224 1.866l-.522 2.584H12.92l.497-2.435c.075-.373.05-.622-.074-.746-.125-.124-.398-.187-.82-.187h-1.294l-.646 3.368H8.791l.895-4.478h1.791l-.298 1.493" fill="#777BB4"/>
</svg>
